<?xml version="1.0" encoding="utf-8"?>
<!-- Generator: Adobe Illustrator 26.1.0, SVG Export Plug-In . SVG Version: 6.00 Build 0)  -->
<svg version="1.1" id="Calque_1" xmlns="http://www.w3.org/2000/svg" xmlns:xlink="http://www.w3.org/1999/xlink" x="0px" y="0px"
	 viewBox="0 0 317.9 94.8" style="enable-background:new 0 0 317.9 94.8;" xml:space="preserve">
<style type="text/css">
	.st0{fill:#C6E3DF;}
	.st1{fill:#52A79B;}
	.st2{fill:#FFFFFF;}
</style>
<path class="st0" d="M92.5,35.8l-16-23.1L51,0L51,0L20.6,8.8h-0.2L4.5,27.7l-0.1,0.1l0,0.2L0,58.8V59l16,23.1l25.5,12.6l0.2,0
	l30-8.8h0.2l15.9-18.9l0.1-0.1l0-0.2l4.6-30.1 M84.1,40.5l-8.3-24l15.6,19.4L84.1,40.5z M13.4,57.8L5,34.3l20.1-5.1L13.4,57.8z
	 M13.6,58.6l0.2-0.1l0.3-0.3l11.8-28.6l13,24.5L13.6,58.6z M39.1,54.8l-0.6,25.4L14.4,59.4L39.1,54.8z M26.6,29l31.6,2.9L39.6,53.4
	L26.6,29z M59.3,30.8L47.1,9.4l26.5,5L59.3,30.8z M74.4,15l8.8,25.4l-23.1-9.1L74.4,15z M66.5,63.3L40.3,54L59,32.5L66.5,63.3z
	 M58.4,31l-31.4-2.9L46.1,9.6L58.4,31z M40,54.9l26.2,9.3L39.5,80.3L40,54.9z M66.8,64.9l-1.7,21l-24.8-5L66.8,64.9z M59.9,32.3
	l23.3,9.2L67.6,63L59.9,32.3z M76,13.5l9.8,14L75.2,14.1L76,13.5z M75.2,12.9l-0.7,0.6L61.2,6L75.2,12.9z M72,13.1L46.9,8.4l4-7.5
	L72,13.1z M49.8,1.1l-3.8,7.2L24,8.7L49.8,1.1z M45.1,9.2L26.1,27.6l-4.9-18L45.1,9.2z M20.4,10.3l4.9,17.8L5.5,33.2L20.4,10.3z
	 M5.2,28.1l12-14.4L4.8,32.5L5.2,28.1z M4.6,35.8l8.1,22.8L0.9,58.4L4.6,35.8z M1.2,59.4l11.7,0.3l2.7,20.5L1.2,59.4z M13.9,60.3
	l23.8,20.5l-21.1,0.7L13.9,60.3z M18.1,82.4l20.4-0.7l2.5,12L18.1,82.4z M42,94l-2.5-12.2l24.1,4.9L42,94z M71.5,85.3l-4.7,0.6
	l17.4-15.6L71.5,85.3z M65.9,85.3l1.8-20.8l18.8,2.6L65.9,85.3z M68.1,63.7l15.5-21.3L87,66.3L68.1,63.7z M87.5,63.8l-3-22.3
	l7.1-4.5L87.5,63.8z"/>
<path class="st1" d="M16.7,57.8c-0.9-2-3.2-2.9-5.1-2s-2.9,3.2-2,5.1c0.4,0.9,1.2,1.7,2.1,2.1c1,0.4,2,0.4,3,0
	C16.7,62.1,17.6,59.8,16.7,57.8C16.7,57.8,16.7,57.8,16.7,57.8L16.7,57.8z"/>
<path class="st1" d="M62.4,28.3c-2-1.7-4.9-1.4-6.6,0.6c-1.7,2-1.4,4.9,0.5,6.6c0.8,0.7,1.9,1.1,3,1.1c0.1,0,0.3,0,0.4,0
	c2.6-0.2,4.5-2.5,4.3-5.1C64,30.2,63.4,29.1,62.4,28.3L62.4,28.3z"/>
<path class="st1" d="M77.4,13.4c-0.7-1.6-2.5-2.3-4.1-1.6c-1.6,0.7-2.3,2.5-1.6,4.1c0.5,1.1,1.6,1.9,2.9,1.9c0.4,0,0.8-0.1,1.2-0.3
	C77.3,16.8,78,15,77.4,13.4z"/>
<path class="st1" d="M42.9,52.8c-0.7-1.6-2.5-2.3-4.1-1.6c-1.6,0.7-2.3,2.5-1.6,4.1c0.3,0.8,0.9,1.4,1.7,1.7c0.8,0.3,1.6,0.3,2.4,0
	C42.8,56.2,43.5,54.4,42.9,52.8z"/>
<path class="st1" d="M86.8,39.7c-0.7-1.6-2.5-2.3-4.1-1.6c-1.6,0.7-2.3,2.5-1.6,4.1c0.7,1.6,2.5,2.3,4.1,1.6c0,0,0,0,0,0
	C86.8,43.1,87.5,41.3,86.8,39.7C86.8,39.7,86.8,39.7,86.8,39.7z"/>
<path class="st2" d="M129.2,18.3c0,0.3-0.1,0.6-0.3,0.8c-0.2,0.3-0.5,0.4-0.9,0.4c-0.2,0-0.4-0.1-0.6-0.2c-2-1.4-4.4-2.1-6.8-2.1
	c-2,0-4,0.5-5.7,1.5c-1.7,1-3.1,2.4-4,4.2c-1,1.9-1.5,4-1.5,6.1c0,2.1,0.5,4.3,1.5,6.1c0.9,1.7,2.3,3.2,4,4.1c1.7,1,3.7,1.5,5.7,1.5
	c2.4,0,4.8-0.7,6.8-2c0.2-0.1,0.4-0.2,0.7-0.2c0.4,0,0.7,0.2,0.9,0.5c0.2,0.2,0.3,0.5,0.3,0.7c0,0.4-0.2,0.8-0.5,0.9
	c-1.2,0.7-2.4,1.3-3.7,1.7c-1.4,0.4-2.9,0.7-4.3,0.7c-2.4,0-4.8-0.6-6.8-1.8c-2.1-1.2-3.8-2.9-5-5c-1.3-2.2-1.9-4.7-1.9-7.3
	c0-2.5,0.6-5,1.8-7.2c1.2-2.1,2.9-3.8,5-5c2.1-1.2,4.5-1.8,6.9-1.8c1.4,0,2.9,0.2,4.3,0.6c1.3,0.4,2.6,1,3.8,1.8
	C129,17.6,129.2,17.9,129.2,18.3z"/>
<path class="st2" d="M137.8,42.3c-0.2,0.2-0.5,0.4-0.9,0.4c-0.6,0-1.2-0.4-1.2-1.1c0,0,0-0.1,0-0.1V16.6c0-0.3,0.1-0.6,0.4-0.9
	c0.2-0.2,0.6-0.3,0.9-0.3c0.7,0,1.2,0.5,1.2,1.2c0,0,0,0,0,0v24.9C138.2,41.8,138,42.1,137.8,42.3z"/>
<path class="st2" d="M169.7,36.2c-3.3,6.3-11,8.7-17.3,5.5c-2.4-1.2-4.3-3.1-5.5-5.5c-1.1-2.2-1.7-4.7-1.7-7.2c0-2.5,0.5-5,1.7-7.3
	c1.1-2.1,2.7-3.8,4.6-5c4.2-2.4,9.3-2.4,13.5,0c2,1.2,3.6,2.9,4.6,5c1.1,2.2,1.7,4.7,1.7,7.3C171.4,31.5,170.8,34,169.7,36.2z
	 M167.5,22.9c-0.8-1.7-2.1-3.1-3.7-4.2c-3.4-2-7.6-2-11,0c-1.6,1-2.9,2.4-3.7,4.2c-0.9,1.9-1.4,4-1.3,6.1c0,2.1,0.4,4.2,1.3,6.1
	c0.8,1.7,2.1,3.1,3.7,4.2c3.4,2,7.6,2,11,0c1.6-1,2.9-2.4,3.7-4.2c0.9-1.9,1.4-4,1.3-6.1C168.9,26.9,168.5,24.8,167.5,22.9
	L167.5,22.9z"/>
<path class="st2" d="M201.1,36.2c-3.3,6.3-11,8.7-17.3,5.5c-2.4-1.2-4.3-3.1-5.5-5.5c-1.1-2.2-1.7-4.7-1.7-7.2c0-2.5,0.5-5,1.7-7.3
	c1.1-2.1,2.7-3.8,4.6-5c4.2-2.4,9.3-2.4,13.5,0c2,1.2,3.6,2.9,4.6,5c1.1,2.2,1.7,4.7,1.7,7.3C202.8,31.5,202.3,34,201.1,36.2z
	 M199,22.9c-0.8-1.7-2.1-3.1-3.7-4.2c-3.4-2-7.6-2-11,0c-1.6,1-2.9,2.4-3.7,4.2c-0.9,1.9-1.4,4-1.3,6.1c0,2.1,0.4,4.2,1.3,6.1
	c0.8,1.7,2.1,3.1,3.7,4.2c3.4,2,7.6,2,11,0c1.6-1,2.9-2.4,3.7-4.2c0.9-1.9,1.4-4,1.3-6.1C200.3,26.9,199.9,24.8,199,22.9L199,22.9z"
	/>
<path class="st2" d="M212.3,42.1c-1.6-0.7-3-1.7-4.2-2.9c-0.3-0.2-0.5-0.6-0.5-0.9c0-0.3,0.1-0.6,0.4-0.9c0.2-0.2,0.5-0.4,0.8-0.4
	c0.3,0,0.6,0.1,0.9,0.4c1.9,2.2,4.7,3.4,7.6,3.4c1.7,0.1,3.3-0.4,4.7-1.3c1.2-0.8,1.9-2.1,1.9-3.5c0-1-0.3-2-0.9-2.8
	c-0.7-0.8-1.5-1.4-2.4-1.8c-1.2-0.6-2.5-1-3.8-1.4c-1.4-0.4-2.9-1-4.2-1.6c-1.1-0.6-2-1.4-2.8-2.4c-0.7-1.1-1.1-2.5-1.1-3.8
	c0-1.3,0.4-2.6,1.1-3.7c0.8-1.1,1.9-2,3.1-2.5c1.5-0.6,3-0.9,4.6-0.9c1.5,0,3,0.3,4.5,0.8c1.3,0.5,2.4,1.2,3.3,2.3
	c0.3,0.3,0.5,0.7,0.6,1.1c0,0.3-0.2,0.6-0.4,0.8c-0.2,0.2-0.5,0.4-0.9,0.4c-0.2,0-0.5-0.1-0.7-0.3c-0.8-0.9-1.7-1.6-2.8-2
	c-1.2-0.5-2.4-0.8-3.7-0.8c-1.6-0.1-3.3,0.4-4.6,1.3c-1.2,0.8-1.8,2.1-1.8,3.5c-0.1,1.4,0.6,2.7,1.7,3.5c1.5,1,3.2,1.7,4.9,2.2
	c1.6,0.4,3.1,1,4.5,1.7c1.1,0.6,2.1,1.4,2.9,2.4c0.8,1.2,1.2,2.7,1.1,4.2c0,1.3-0.4,2.6-1.1,3.6c-0.8,1.1-1.9,2-3.2,2.6
	c-1.5,0.6-3.1,1-4.7,0.9C215.6,43.1,213.9,42.7,212.3,42.1z"/>
<path class="st2" d="M117.5,53.7c0,0.2-0.1,0.5-0.2,0.7c-0.2,0.2-0.4,0.3-0.7,0.3c-0.2,0-0.4-0.1-0.5-0.1c-0.5-0.2-1.1-0.4-1.7-0.4
	c-0.7,0-1.4,0.1-2,0.5c-0.5,0.3-1,0.8-1.3,1.3c-0.3,0.6-0.5,1.3-0.4,2c-0.1,1.1,0.3,2.1,1,2.9c1.2,1,2.9,1.3,4.4,0.6
	c0.2-0.1,0.3-0.1,0.5-0.1c0.3,0,0.5,0.1,0.7,0.4c0.2,0.2,0.2,0.4,0.2,0.7c0,0.2,0,0.3-0.1,0.5c-0.1,0.1-0.2,0.3-0.4,0.3
	c-0.8,0.4-1.7,0.6-2.7,0.6c-1,0-2-0.2-2.9-0.7c-0.9-0.4-1.6-1.1-2.1-2c-0.5-1-0.8-2-0.8-3.1c0-1,0.2-2,0.7-2.9
	c0.5-0.9,1.2-1.6,2.1-2c0.9-0.5,1.9-0.7,3-0.7c0.9,0,1.8,0.2,2.6,0.6C117.4,53,117.6,53.4,117.5,53.7z"/>
<path class="st2" d="M128,62.7c0,0.3-0.1,0.5-0.3,0.7c-0.2,0.2-0.4,0.3-0.6,0.3c-0.2,0-0.4-0.1-0.5-0.2c-0.2-0.1-0.3-0.3-0.4-0.5
	l-0.8-1.9h-4.8l-0.8,2c-0.1,0.2-0.2,0.4-0.3,0.5c-0.3,0.3-0.9,0.3-1.1-0.1c-0.1-0.2-0.2-0.4-0.2-0.6c0-0.1,0-0.2,0-0.3l4-9.6
	c0.1-0.2,0.2-0.4,0.4-0.5c0.2-0.1,0.4-0.2,0.6-0.1c0.4,0,0.8,0.3,0.9,0.6l3.9,9.4C128,62.4,128,62.5,128,62.7z M121.4,59.2h3.2
	l-1.6-3.7L121.4,59.2z"/>
<path class="st2" d="M138.4,52.6c0.2,0.2,0.2,0.4,0.2,0.6v9.3c0,0.5-0.4,1-0.9,1c0,0,0,0,0,0c-0.1,0-0.3,0-0.4-0.1
	c-0.1,0-0.2-0.1-0.3-0.2l-5.9-7.5v6.8c0,0.2-0.1,0.5-0.2,0.6c-0.2,0.2-0.4,0.3-0.6,0.3c-0.2,0-0.5-0.1-0.6-0.3
	c-0.2-0.2-0.2-0.4-0.2-0.6v-9.3c0-0.5,0.4-1,0.9-1c0,0,0,0,0,0c0.2,0,0.3,0,0.5,0.1c0.1,0.1,0.3,0.1,0.3,0.3l5.8,7.4v-6.9
	c0-0.2,0.1-0.5,0.2-0.6c0.2-0.2,0.4-0.3,0.6-0.3C138,52.3,138.3,52.4,138.4,52.6z"/>
<path class="st2" d="M149.8,62.7c0,0.3-0.1,0.5-0.3,0.7c-0.2,0.2-0.4,0.3-0.6,0.3c-0.2,0-0.4-0.1-0.5-0.2c-0.2-0.1-0.3-0.3-0.4-0.5
	l-0.8-1.9h-4.8l-0.8,2c-0.1,0.2-0.2,0.4-0.3,0.5c-0.3,0.3-0.9,0.3-1.1-0.1c-0.1-0.2-0.2-0.4-0.2-0.6c0-0.1,0-0.2,0-0.3l4-9.6
	c0.1-0.2,0.2-0.4,0.4-0.5c0.2-0.1,0.4-0.2,0.6-0.1c0.4,0,0.8,0.3,0.9,0.6l3.9,9.4C149.8,62.4,149.8,62.5,149.8,62.7z M143.3,59.2
	h3.2l-1.6-3.7L143.3,59.2z"/>
<path class="st2" d="M158.5,53.1c0.7,0.5,1.3,1.2,1.6,2c0.8,1.8,0.8,3.9,0,5.7c-0.4,0.8-0.9,1.5-1.6,2c-0.8,0.5-1.7,0.8-2.6,0.7
	h-3.8c-0.5,0-1-0.4-1-0.9c0,0,0,0,0,0v-9.2c0-0.5,0.4-1,0.9-1c0,0,0,0,0,0h3.8C156.8,52.3,157.7,52.6,158.5,53.1z M157.9,60.6
	c1-1.7,1-3.7,0-5.4c-0.5-0.7-1.3-1.1-2.2-1.1h-2.6v7.5h2.6C156.6,61.8,157.4,61.3,157.9,60.6L157.9,60.6z"/>
<path class="st2" d="M164.2,63.3c-0.2,0.2-0.4,0.3-0.7,0.3c-0.3,0-0.5-0.1-0.7-0.3c-0.2-0.2-0.3-0.4-0.3-0.7v-9.2
	c0-0.3,0.1-0.5,0.3-0.7c0.2-0.2,0.5-0.3,0.7-0.3c0.3,0,0.5,0.1,0.7,0.3c0.2,0.2,0.3,0.4,0.3,0.7v9.2
	C164.5,62.8,164.4,63.1,164.2,63.3z"/>
<path class="st2" d="M175.7,62.7c0,0.3-0.1,0.5-0.3,0.7c-0.2,0.2-0.4,0.3-0.6,0.3c-0.2,0-0.4-0.1-0.5-0.2c-0.2-0.1-0.3-0.3-0.4-0.5
	l-0.8-1.9h-4.8l-0.8,2c-0.1,0.2-0.2,0.4-0.3,0.5c-0.3,0.3-0.9,0.3-1.1-0.1c-0.1-0.2-0.2-0.4-0.2-0.6c0-0.1,0-0.2,0-0.3l4-9.6
	c0.1-0.2,0.2-0.4,0.4-0.5c0.2-0.1,0.4-0.2,0.6-0.1c0.4,0,0.8,0.3,0.9,0.6l3.9,9.4C175.6,62.4,175.7,62.5,175.7,62.7z M169.1,59.2
	h3.2l-1.6-3.7L169.1,59.2z"/>
<path class="st2" d="M186.1,52.6c0.2,0.2,0.2,0.4,0.2,0.6v9.3c0,0.5-0.4,1-0.9,1c0,0,0,0,0,0c-0.1,0-0.3,0-0.4-0.1
	c-0.1,0-0.2-0.1-0.3-0.2l-5.9-7.5v6.8c0,0.2-0.1,0.5-0.2,0.6c-0.2,0.2-0.4,0.3-0.6,0.3c-0.2,0-0.5-0.1-0.6-0.3
	c-0.2-0.2-0.2-0.4-0.2-0.6v-9.3c0-0.5,0.4-1,0.9-1c0,0,0,0,0,0c0.2,0,0.3,0,0.5,0.1c0.1,0.1,0.3,0.1,0.3,0.3l5.8,7.4v-6.9
	c0-0.2,0.1-0.5,0.2-0.6c0.2-0.2,0.4-0.3,0.6-0.3C185.7,52.3,185.9,52.4,186.1,52.6z"/>
<path class="st2" d="M194.7,63.3c-0.2,0.2-0.4,0.3-0.7,0.3c-0.3,0-0.5-0.1-0.7-0.3c-0.2-0.2-0.3-0.4-0.3-0.7v-9.2
	c0-0.3,0.1-0.5,0.3-0.7c0.2-0.2,0.5-0.3,0.7-0.3c0.3,0,0.5,0.1,0.7,0.3c0.2,0.2,0.3,0.4,0.3,0.7v9.2C195,62.8,194.9,63.1,194.7,63.3
	z"/>
<path class="st2" d="M206.5,52.6c0.2,0.2,0.2,0.4,0.2,0.6v9.3c0,0.5-0.4,1-0.9,1c0,0,0,0,0,0c-0.1,0-0.3,0-0.4-0.1
	c-0.1,0-0.2-0.1-0.3-0.2l-5.9-7.5v6.8c0,0.2-0.1,0.5-0.2,0.6c-0.2,0.2-0.4,0.3-0.6,0.3c-0.2,0-0.5-0.1-0.6-0.3
	c-0.2-0.2-0.2-0.4-0.2-0.6v-9.3c0-0.5,0.4-1,0.9-1c0,0,0,0,0,0c0.2,0,0.3,0,0.5,0.1c0.1,0.1,0.3,0.1,0.3,0.3l5.8,7.4v-6.9
	c0-0.2,0.1-0.5,0.2-0.6c0.2-0.2,0.4-0.3,0.6-0.3C206.1,52.3,206.3,52.4,206.5,52.6z"/>
<path class="st2" d="M217.1,52.6c0.2,0.2,0.3,0.4,0.3,0.7c0,0.3-0.1,0.5-0.3,0.7c-0.2,0.2-0.4,0.3-0.7,0.2h-2.5v8.4
	c0,0.3-0.1,0.5-0.3,0.7c-0.2,0.2-0.5,0.3-0.8,0.3c-0.3,0-0.5-0.1-0.7-0.3c-0.2-0.2-0.3-0.4-0.3-0.7v-8.4h-2.5
	c-0.3,0-0.5-0.1-0.7-0.3c-0.2-0.2-0.3-0.4-0.3-0.7c0-0.2,0.1-0.5,0.3-0.7c0.2-0.2,0.4-0.3,0.7-0.3h7.1
	C216.7,52.3,216.9,52.4,217.1,52.6z"/>
<path class="st2" d="M226,62c0.2,0.2,0.3,0.4,0.3,0.6c0,0.2-0.1,0.5-0.3,0.7c-0.2,0.2-0.4,0.3-0.7,0.3h-5.4c-0.5,0-1-0.4-1-0.9
	c0,0,0,0,0,0v-9.2c0-0.5,0.4-1,0.9-1c0,0,0,0,0,0h5.4c0.3,0,0.5,0.1,0.7,0.3c0.2,0.2,0.3,0.4,0.3,0.7c0,0.2-0.1,0.5-0.3,0.6
	c-0.2,0.2-0.4,0.3-0.7,0.2H221v2.7h3.6c0.3,0,0.5,0.1,0.7,0.3c0.2,0.2,0.3,0.4,0.3,0.7c0,0.2-0.1,0.5-0.3,0.6
	c-0.2,0.2-0.4,0.3-0.7,0.2H221v3h4.3C225.6,61.7,225.8,61.8,226,62z"/>
<path class="st2" d="M237,57.8c0.2,0.2,0.3,0.4,0.3,0.7v3.4c0,0.4-0.2,0.7-0.5,0.9c-1,0.6-2.2,1-3.4,1c-2.1,0-4-1.1-5.1-2.9
	c-1-1.8-1-4,0-5.8c0.5-0.9,1.2-1.6,2.1-2.1c0.9-0.5,1.9-0.8,2.9-0.8c1,0,1.9,0.2,2.8,0.6c0.3,0.1,0.5,0.5,0.5,0.8
	c0,0.3-0.1,0.5-0.3,0.7c-0.2,0.2-0.4,0.3-0.6,0.3c-0.2,0-0.4,0-0.5-0.1c-0.6-0.2-1.2-0.4-1.8-0.4c-0.7,0-1.3,0.2-1.9,0.5
	c-1.8,1.1-2.4,3.5-1.3,5.3c0.3,0.5,0.8,1,1.3,1.3c0.6,0.3,1.2,0.5,1.9,0.5c0.3,0,0.6,0,1-0.1c0.3,0,0.6-0.1,0.9-0.2v-2.1h-1.5
	c-0.3,0-0.5-0.1-0.7-0.3c-0.4-0.4-0.4-1,0-1.4c0.2-0.2,0.4-0.3,0.7-0.3h2.6C236.6,57.5,236.8,57.6,237,57.8z"/>
<path class="st2" d="M248.2,62.3c0.1,0.1,0.1,0.3,0.1,0.4c0,0.2-0.1,0.4-0.2,0.5c-0.2,0.2-0.5,0.3-0.7,0.3c-0.2,0-0.5-0.1-0.7-0.2
	c-0.9-0.6-1.3-1.6-1.2-2.7c0-0.3-0.1-0.7-0.4-0.9c-0.3-0.2-0.7-0.4-1.1-0.3h-3v3.1c0,0.3-0.1,0.5-0.2,0.7c-0.2,0.2-0.4,0.3-0.6,0.3
	c-0.3,0-0.6-0.1-0.8-0.3c-0.2-0.2-0.3-0.4-0.3-0.7v-9.2c0-0.5,0.4-1,0.9-1c0,0,0,0,0,0h4.6c0.6,0,1.1,0.2,1.6,0.4
	c0.5,0.3,0.9,0.7,1.2,1.2c0.3,0.5,0.4,1.1,0.4,1.8c0,0.5-0.2,1.1-0.4,1.6c-0.3,0.5-0.7,0.9-1.1,1.2c0.6,0.4,1.1,1.1,1.1,1.9
	c0,0.2,0,0.3,0,0.5c0,0.2,0.1,0.5,0.1,0.7c0,0.1,0.1,0.3,0.3,0.3C248,62.1,248.1,62.2,248.2,62.3z M245.2,57.5
	c0.2-0.2,0.4-0.5,0.4-0.7c0.1-0.3,0.2-0.6,0.2-1c0-0.3-0.1-0.6-0.2-0.8c-0.1-0.2-0.3-0.4-0.4-0.6c-0.2-0.1-0.4-0.2-0.6-0.2h-3.5v3.6
	h3.5C244.8,57.8,245,57.7,245.2,57.5z"/>
<path class="st2" d="M258.9,62.7c0,0.3-0.1,0.5-0.3,0.7c-0.2,0.2-0.4,0.3-0.6,0.3c-0.2,0-0.4-0.1-0.5-0.2c-0.2-0.1-0.3-0.3-0.4-0.5
	l-0.8-1.9h-4.8l-0.8,2c-0.1,0.2-0.2,0.4-0.3,0.5c-0.3,0.3-0.9,0.3-1.1-0.1c-0.1-0.2-0.2-0.4-0.2-0.6c0-0.1,0-0.2,0-0.3l4-9.6
	c0.1-0.2,0.2-0.4,0.4-0.5c0.2-0.1,0.4-0.2,0.6-0.1c0.4,0,0.8,0.3,0.9,0.6l3.9,9.4C258.8,62.4,258.9,62.5,258.9,62.7z M252.3,59.2
	h3.2l-1.6-3.7L252.3,59.2z"/>
<path class="st2" d="M267.4,52.6c0.2,0.2,0.3,0.4,0.3,0.7c0,0.3-0.1,0.5-0.3,0.7c-0.2,0.2-0.4,0.3-0.7,0.2h-2.5v8.4
	c0,0.3-0.1,0.5-0.3,0.7c-0.2,0.2-0.5,0.3-0.8,0.3c-0.3,0-0.5-0.1-0.7-0.3c-0.2-0.2-0.3-0.4-0.3-0.7v-8.4h-2.5
	c-0.3,0-0.5-0.1-0.7-0.3c-0.2-0.2-0.3-0.4-0.3-0.7c0-0.2,0.1-0.5,0.3-0.7c0.2-0.2,0.4-0.3,0.7-0.3h7.1
	C267,52.3,267.2,52.4,267.4,52.6z"/>
<path class="st2" d="M276.3,62c0.2,0.2,0.3,0.4,0.3,0.6c0,0.2-0.1,0.5-0.3,0.7c-0.2,0.2-0.4,0.3-0.7,0.3h-5.4c-0.5,0-1-0.4-1-0.9
	c0,0,0,0,0,0v-9.2c0-0.5,0.4-1,0.9-1c0,0,0,0,0,0h5.4c0.3,0,0.5,0.1,0.7,0.3c0.2,0.2,0.3,0.4,0.3,0.7c0,0.2-0.1,0.5-0.3,0.6
	c-0.2,0.2-0.4,0.3-0.7,0.2h-4.3v2.7h3.6c0.3,0,0.5,0.1,0.7,0.3c0.2,0.2,0.3,0.4,0.3,0.7c0,0.2-0.1,0.5-0.3,0.6
	c-0.2,0.2-0.4,0.3-0.7,0.2h-3.6v3h4.3C275.9,61.7,276.1,61.8,276.3,62z"/>
<path class="st2" d="M285.7,53.1c0.7,0.5,1.3,1.2,1.6,2c0.8,1.8,0.8,3.9,0,5.7c-0.4,0.8-0.9,1.5-1.6,2c-0.8,0.5-1.7,0.8-2.6,0.7
	h-3.8c-0.5,0-1-0.4-1-0.9c0,0,0,0,0,0v-9.2c0-0.5,0.4-1,0.9-1c0,0,0,0,0,0h3.8C284.1,52.3,285,52.6,285.7,53.1z M285.2,60.6
	c1-1.7,1-3.7,0-5.4c-0.5-0.7-1.3-1.1-2.2-1.1h-2.6v7.5h2.6C283.9,61.8,284.7,61.3,285.2,60.6L285.2,60.6z"/>
<path class="st2" d="M118.8,77.3c-0.4,0.9-1.1,1.6-1.9,2.1c-1.7,1-3.9,1-5.6,0c-0.8-0.5-1.5-1.2-1.9-2.1c-0.9-1.8-0.9-4,0-5.8
	c0.4-0.9,1.1-1.6,1.9-2.1c1.7-1,3.9-1,5.6,0c0.8,0.5,1.5,1.2,1.9,2.1C119.7,73.4,119.7,75.5,118.8,77.3z M117,72.5
	c-0.3-0.6-0.7-1-1.2-1.4c-1.1-0.7-2.4-0.7-3.5,0c-0.5,0.3-0.9,0.8-1.2,1.4c-0.6,1.2-0.6,2.7,0,3.9c0.3,0.6,0.7,1,1.2,1.4
	c1.1,0.7,2.4,0.7,3.5,0c0.5-0.3,0.9-0.8,1.2-1.4C117.6,75.2,117.6,73.7,117,72.5z"/>
<path class="st2" d="M129.6,70.2c0,0.2-0.1,0.5-0.2,0.7c-0.2,0.2-0.4,0.3-0.7,0.3c-0.2,0-0.4-0.1-0.5-0.1c-0.5-0.2-1.1-0.4-1.7-0.4
	c-0.7,0-1.4,0.1-2,0.5c-0.5,0.3-1,0.8-1.3,1.3c-0.3,0.6-0.5,1.3-0.4,2c-0.1,1.1,0.3,2.1,1,2.9c1.2,1,2.9,1.3,4.4,0.6
	c0.2-0.1,0.3-0.1,0.5-0.1c0.3,0,0.5,0.1,0.7,0.4c0.2,0.2,0.2,0.4,0.2,0.7c0,0.2,0,0.3-0.1,0.5c-0.1,0.1-0.2,0.3-0.4,0.3
	c-0.8,0.4-1.7,0.6-2.7,0.6c-1,0-2-0.2-2.9-0.7c-0.9-0.4-1.6-1.1-2.1-2c-0.5-1-0.8-2-0.8-3.1c0-1,0.2-2,0.7-2.9
	c0.5-0.9,1.2-1.6,2.1-2c0.9-0.5,1.9-0.7,3-0.7c0.9,0,1.8,0.2,2.6,0.6C129.4,69.5,129.6,69.9,129.6,70.2z"/>
<path class="st2" d="M138.3,78.5c0.2,0.2,0.3,0.4,0.3,0.6c0,0.2-0.1,0.5-0.3,0.7c-0.2,0.2-0.4,0.3-0.7,0.3h-5.4c-0.5,0-1-0.4-1-0.9
	c0,0,0,0,0,0v-9.2c0-0.5,0.4-1,0.9-1c0,0,0,0,0,0h5.4c0.3,0,0.5,0.1,0.7,0.3c0.2,0.2,0.3,0.4,0.3,0.7c0,0.2-0.1,0.5-0.3,0.6
	c-0.2,0.2-0.4,0.3-0.7,0.2h-4.3v2.7h3.6c0.3,0,0.5,0.1,0.7,0.3c0.2,0.2,0.3,0.4,0.3,0.7c0,0.2-0.1,0.5-0.3,0.6
	c-0.2,0.2-0.4,0.3-0.7,0.2h-3.6v3h4.3C137.8,78.2,138.1,78.3,138.3,78.5z"/>
<path class="st2" d="M149.2,79.2c0,0.3-0.1,0.5-0.3,0.7c-0.2,0.2-0.4,0.3-0.6,0.3c-0.2,0-0.4-0.1-0.5-0.2c-0.2-0.1-0.3-0.3-0.4-0.5
	l-0.8-1.9h-4.8l-0.8,2c-0.1,0.2-0.2,0.4-0.3,0.5c-0.3,0.3-0.9,0.3-1.1-0.1c-0.1-0.2-0.2-0.4-0.2-0.6c0-0.1,0-0.2,0-0.3l4-9.6
	c0.1-0.2,0.2-0.4,0.4-0.5c0.2-0.1,0.4-0.2,0.6-0.1c0.4,0,0.8,0.3,0.9,0.6l3.9,9.4C149.1,78.9,149.2,79,149.2,79.2z M142.6,75.7h3.2
	l-1.6-3.7L142.6,75.7z"/>
<path class="st2" d="M159.6,69.1c0.2,0.2,0.2,0.4,0.2,0.6v9.3c0,0.5-0.4,1-0.9,1c0,0,0,0,0,0c-0.1,0-0.3,0-0.4-0.1
	c-0.1,0-0.2-0.1-0.3-0.2l-5.9-7.5v6.8c0,0.2-0.1,0.5-0.2,0.6c-0.2,0.2-0.4,0.3-0.6,0.3c-0.2,0-0.5-0.1-0.6-0.3
	c-0.2-0.2-0.2-0.4-0.2-0.6v-9.3c0-0.5,0.4-1,0.9-1c0,0,0,0,0,0c0.2,0,0.3,0,0.5,0.1c0.1,0.1,0.3,0.1,0.3,0.3l5.8,7.4v-6.9
	c0-0.2,0.1-0.5,0.2-0.6c0.2-0.2,0.4-0.3,0.6-0.3C159.2,68.8,159.4,68.9,159.6,69.1z"/>
<path class="st2" d="M176.1,77.3c-0.4,0.9-1.1,1.6-1.9,2.1c-1.7,1-3.9,1-5.6,0c-0.8-0.5-1.5-1.2-1.9-2.1c-0.9-1.8-0.9-4,0-5.8
	c0.4-0.9,1.1-1.6,1.9-2.1c1.7-1,3.9-1,5.6,0c0.8,0.5,1.5,1.2,1.9,2.1C177.1,73.4,177.1,75.5,176.1,77.3z M174.3,72.5
	c-0.3-0.6-0.7-1-1.2-1.4c-1.1-0.7-2.4-0.7-3.5,0c-0.5,0.3-0.9,0.8-1.2,1.4c-0.6,1.2-0.6,2.7,0,3.9c0.3,0.6,0.7,1,1.2,1.4
	c1.1,0.7,2.4,0.7,3.5,0c0.5-0.3,0.9-0.8,1.2-1.4C174.9,75.2,174.9,73.7,174.3,72.5z"/>
<path class="st2" d="M186.7,74.9c0.4,0.5,0.6,1.1,0.5,1.8c0.1,1-0.3,2-1.1,2.7c-0.8,0.5-1.7,0.8-2.6,0.8h-4c-0.5,0-1-0.4-1-0.9
	c0,0,0,0,0,0v-9.2c0-0.5,0.4-1,0.9-1c0,0,0,0,0,0h4c2,0,3,0.9,3,2.8c0,0.9-0.5,1.8-1.3,2.1C185.9,74,186.3,74.4,186.7,74.9z
	 M184.2,71.1c-0.2-0.2-0.6-0.3-0.9-0.3h-2.6v2.5h2.7c0.3,0,0.6-0.1,0.8-0.3c0.2-0.2,0.4-0.5,0.4-0.9
	C184.6,71.7,184.5,71.3,184.2,71.1z M184.7,77.8c0.3-0.3,0.5-0.7,0.4-1.2c0.1-0.5-0.1-0.9-0.5-1.2c-0.4-0.2-0.8-0.3-1.2-0.3h-2.8
	v3.1h2.9C184,78.2,184.4,78.1,184.7,77.8L184.7,77.8z"/>
<path class="st2" d="M190.5,79.9c-0.6-0.2-1.2-0.5-1.7-1c-0.3-0.2-0.4-0.5-0.4-0.8c0-0.2,0.1-0.5,0.3-0.6c0.2-0.2,0.4-0.3,0.7-0.3
	c0.2,0,0.4,0.1,0.5,0.2c0.4,0.3,0.8,0.6,1.2,0.8c0.5,0.2,0.9,0.3,1.4,0.2c0.5,0,1.1-0.1,1.5-0.4c0.4-0.2,0.6-0.6,0.6-1
	c0-0.5-0.2-0.9-0.6-1.1c-0.6-0.3-1.3-0.5-2-0.6c-2.3-0.3-3.5-1.4-3.5-3.3c0-0.6,0.2-1.2,0.5-1.8c0.4-0.5,0.9-0.9,1.4-1.1
	c0.6-0.3,1.3-0.4,2-0.4c0.6,0,1.3,0.1,1.9,0.3c0.5,0.2,1,0.4,1.5,0.8c0.3,0.2,0.5,0.5,0.5,0.8c0,0.2-0.1,0.5-0.3,0.6
	c-0.2,0.2-0.4,0.3-0.6,0.3c-0.2,0-0.3,0-0.4-0.1c-0.4-0.3-0.7-0.5-1.2-0.6c-0.4-0.2-0.9-0.3-1.3-0.3c-0.5,0-1.1,0.1-1.6,0.4
	c-0.6,0.4-0.7,1.1-0.4,1.6c0.1,0.2,0.2,0.3,0.4,0.4c0.6,0.3,1.2,0.5,1.8,0.6c0.8,0.1,1.5,0.3,2.2,0.6c0.5,0.2,0.9,0.6,1.2,1
	c0.3,0.5,0.4,1.1,0.4,1.7c0,0.6-0.2,1.3-0.6,1.8c-0.4,0.5-0.9,0.9-1.5,1.2c-0.6,0.3-1.3,0.4-2,0.4C191.9,80.2,191.2,80.1,190.5,79.9
	z"/>
<path class="st2" d="M205.5,78.5c0.2,0.2,0.3,0.4,0.3,0.6c0,0.2-0.1,0.5-0.3,0.7c-0.2,0.2-0.4,0.3-0.7,0.3h-5.4c-0.5,0-1-0.4-1-0.9
	c0,0,0,0,0,0v-9.2c0-0.5,0.4-1,0.9-1c0,0,0,0,0,0h5.4c0.3,0,0.5,0.1,0.7,0.3c0.2,0.2,0.3,0.4,0.3,0.7c0,0.2-0.1,0.5-0.3,0.6
	c-0.2,0.2-0.4,0.3-0.7,0.2h-4.3v2.7h3.6c0.3,0,0.5,0.1,0.7,0.3c0.2,0.2,0.3,0.4,0.3,0.7c0,0.2-0.1,0.5-0.3,0.6
	c-0.2,0.2-0.4,0.3-0.7,0.2h-3.6v3h4.3C205.1,78.2,205.3,78.3,205.5,78.5z"/>
<path class="st2" d="M216.6,78.8c0.1,0.1,0.1,0.3,0.1,0.4c0,0.2-0.1,0.4-0.2,0.5c-0.2,0.2-0.5,0.3-0.7,0.3c-0.2,0-0.5-0.1-0.7-0.2
	c-0.9-0.6-1.3-1.6-1.2-2.7c0-0.3-0.1-0.7-0.4-0.9c-0.3-0.2-0.7-0.4-1.1-0.3h-3v3.1c0,0.3-0.1,0.5-0.2,0.7c-0.2,0.2-0.4,0.3-0.6,0.3
	c-0.3,0-0.6-0.1-0.8-0.3c-0.2-0.2-0.3-0.4-0.3-0.7v-9.2c0-0.5,0.4-1,0.9-1c0,0,0,0,0,0h4.6c0.6,0,1.1,0.2,1.6,0.4
	c0.5,0.3,0.9,0.7,1.2,1.2c0.3,0.5,0.4,1.1,0.4,1.8c0,0.5-0.2,1.1-0.4,1.6c-0.3,0.5-0.7,0.9-1.1,1.2c0.6,0.4,1.1,1.1,1.1,1.9
	c0,0.2,0,0.3,0,0.5c0,0.2,0.1,0.5,0.1,0.7c0,0.1,0.1,0.3,0.3,0.3C216.4,78.6,216.6,78.7,216.6,78.8z M213.6,74
	c0.2-0.2,0.4-0.5,0.4-0.7c0.1-0.3,0.2-0.6,0.2-1c0-0.3-0.1-0.6-0.2-0.8c-0.1-0.2-0.3-0.4-0.4-0.6c-0.2-0.1-0.4-0.2-0.6-0.2h-3.5v3.6
	h3.5C213.2,74.3,213.4,74.2,213.6,74L213.6,74z"/>
<path class="st2" d="M227.1,69.1c0.2,0.2,0.3,0.4,0.3,0.7c0,0.1,0,0.3-0.1,0.4l-4,9.2c-0.1,0.2-0.2,0.4-0.4,0.5
	c-0.3,0.2-0.7,0.2-1,0c-0.2-0.1-0.3-0.3-0.4-0.4l-4-9.3c-0.1-0.1-0.1-0.3-0.1-0.4c0-0.3,0.1-0.5,0.3-0.7c0.2-0.2,0.4-0.3,0.7-0.3
	c0.2,0,0.4,0.1,0.5,0.2c0.2,0.1,0.3,0.3,0.4,0.5l3.2,7.6l2.9-7.6c0.1-0.2,0.2-0.3,0.4-0.4c0.2-0.1,0.3-0.2,0.5-0.2
	C226.6,68.8,226.9,68.9,227.1,69.1z"/>
<path class="st2" d="M230.7,79.8c-0.2,0.2-0.4,0.3-0.7,0.3c-0.3,0-0.5-0.1-0.7-0.3c-0.2-0.2-0.3-0.4-0.3-0.7v-9.2
	c0-0.3,0.1-0.5,0.3-0.7c0.2-0.2,0.5-0.3,0.7-0.3c0.3,0,0.5,0.1,0.7,0.3c0.2,0.2,0.3,0.4,0.3,0.7v9.2C231,79.3,230.9,79.6,230.7,79.8
	z"/>
<path class="st2" d="M242.4,69.1c0.2,0.2,0.2,0.4,0.2,0.6v9.3c0,0.5-0.4,1-0.9,1c0,0,0,0,0,0c-0.1,0-0.3,0-0.4-0.1
	c-0.1,0-0.2-0.1-0.3-0.2l-5.9-7.5v6.8c0,0.2-0.1,0.5-0.2,0.6c-0.2,0.2-0.4,0.3-0.6,0.3c-0.2,0-0.5-0.1-0.6-0.3
	c-0.2-0.2-0.2-0.4-0.2-0.6v-9.3c0-0.5,0.4-1,0.9-1c0,0,0,0,0,0c0.2,0,0.3,0,0.5,0.1c0.1,0.1,0.3,0.1,0.3,0.3l5.8,7.4v-6.9
	c0-0.2,0.1-0.5,0.2-0.6c0.2-0.2,0.4-0.3,0.6-0.3C242,68.8,242.2,68.9,242.4,69.1z"/>
<path class="st2" d="M253.9,74.3c0.2,0.2,0.3,0.4,0.3,0.7v3.4c0,0.4-0.2,0.7-0.5,0.9c-1,0.6-2.2,1-3.4,1c-2.1,0-4-1.1-5.1-2.9
	c-1-1.8-1-4,0-5.8c0.5-0.9,1.2-1.6,2.1-2.1c0.9-0.5,1.9-0.8,2.9-0.8c1,0,1.9,0.2,2.8,0.6c0.3,0.1,0.5,0.5,0.5,0.8
	c0,0.3-0.1,0.5-0.3,0.7c-0.2,0.2-0.4,0.3-0.6,0.3c-0.2,0-0.4,0-0.5-0.1c-0.6-0.2-1.2-0.4-1.8-0.4c-0.7,0-1.3,0.2-1.9,0.5
	c-1.8,1.1-2.4,3.5-1.3,5.3c0.3,0.5,0.8,1,1.3,1.3c0.6,0.3,1.2,0.5,1.9,0.5c0.3,0,0.6,0,1-0.1c0.3,0,0.6-0.1,0.9-0.2v-2.1h-1.5
	c-0.3,0-0.5-0.1-0.7-0.3c-0.4-0.4-0.4-1,0-1.4c0.2-0.2,0.4-0.3,0.7-0.3h2.6C253.5,74,253.7,74.1,253.9,74.3z"/>
<path class="st2" d="M262,79.9c-0.6-0.2-1.2-0.5-1.7-1c-0.3-0.2-0.4-0.5-0.4-0.8c0-0.2,0.1-0.5,0.3-0.6c0.2-0.2,0.4-0.3,0.7-0.3
	c0.2,0,0.4,0.1,0.5,0.2c0.4,0.3,0.8,0.6,1.2,0.8c0.5,0.2,0.9,0.3,1.4,0.2c0.5,0,1.1-0.1,1.5-0.4c0.4-0.2,0.6-0.6,0.6-1
	c0-0.5-0.2-0.9-0.6-1.1c-0.6-0.3-1.3-0.5-2-0.6c-2.3-0.3-3.5-1.4-3.5-3.3c0-0.6,0.2-1.2,0.5-1.8c0.4-0.5,0.9-0.9,1.4-1.1
	c0.6-0.3,1.3-0.4,2-0.4c0.6,0,1.3,0.1,1.9,0.3c0.5,0.2,1,0.4,1.5,0.8c0.3,0.2,0.5,0.5,0.5,0.8c0,0.2-0.1,0.5-0.3,0.6
	c-0.2,0.2-0.4,0.3-0.6,0.3c-0.2,0-0.3,0-0.4-0.1c-0.4-0.3-0.7-0.5-1.2-0.6c-0.4-0.2-0.9-0.3-1.3-0.3c-0.5,0-1.1,0.1-1.6,0.4
	c-0.6,0.4-0.7,1.1-0.4,1.6c0.1,0.2,0.2,0.3,0.4,0.4c0.6,0.3,1.2,0.5,1.8,0.6c0.8,0.1,1.5,0.3,2.2,0.6c0.5,0.2,0.9,0.6,1.2,1
	c0.3,0.5,0.4,1.1,0.4,1.7c0,0.6-0.2,1.3-0.6,1.8c-0.4,0.5-0.9,0.9-1.5,1.2c-0.6,0.3-1.3,0.4-2,0.4C263.3,80.2,262.6,80.1,262,79.9z"
	/>
<path class="st2" d="M277.6,70.4l-3.3,4.8v3.9c0,0.3-0.1,0.5-0.3,0.7c-0.2,0.2-0.4,0.3-0.7,0.3c-0.3,0-0.5-0.1-0.7-0.3
	c-0.2-0.2-0.3-0.4-0.3-0.7v-4.1l-3.3-4.4c-0.2-0.2-0.3-0.5-0.3-0.8c0-0.3,0.1-0.5,0.3-0.7c0.2-0.2,0.4-0.3,0.7-0.3
	c0.3,0,0.6,0.2,0.8,0.4l2.8,3.9l2.6-3.9c0.2-0.3,0.5-0.5,0.8-0.5c0.3,0,0.5,0.1,0.7,0.3c0.2,0.2,0.3,0.4,0.3,0.7
	C277.8,70,277.7,70.2,277.6,70.4z"/>
<path class="st2" d="M280.3,79.9c-0.6-0.2-1.2-0.5-1.7-1c-0.3-0.2-0.4-0.5-0.4-0.8c0-0.2,0.1-0.5,0.3-0.6c0.2-0.2,0.4-0.3,0.7-0.3
	c0.2,0,0.4,0.1,0.5,0.2c0.4,0.3,0.8,0.6,1.2,0.8c0.5,0.2,0.9,0.3,1.4,0.2c0.5,0,1.1-0.1,1.5-0.4c0.4-0.2,0.6-0.6,0.6-1
	c0-0.5-0.2-0.9-0.6-1.1c-0.6-0.3-1.3-0.5-2-0.6c-2.3-0.3-3.5-1.4-3.5-3.3c0-0.6,0.2-1.2,0.5-1.8c0.4-0.5,0.9-0.9,1.4-1.1
	c0.6-0.3,1.3-0.4,2-0.4c0.6,0,1.3,0.1,1.9,0.3c0.5,0.2,1,0.4,1.5,0.8c0.3,0.2,0.5,0.5,0.5,0.8c0,0.2-0.1,0.5-0.3,0.6
	c-0.2,0.2-0.4,0.3-0.6,0.3c-0.2,0-0.3,0-0.4-0.1c-0.4-0.3-0.7-0.5-1.2-0.6c-0.4-0.2-0.9-0.3-1.3-0.3c-0.5,0-1.1,0.1-1.6,0.4
	c-0.6,0.4-0.7,1.1-0.4,1.6c0.1,0.2,0.2,0.3,0.4,0.4c0.6,0.3,1.2,0.5,1.8,0.6c0.8,0.1,1.5,0.3,2.2,0.6c0.5,0.2,0.9,0.6,1.2,1
	c0.3,0.5,0.4,1.1,0.4,1.7c0,0.6-0.2,1.3-0.6,1.8c-0.4,0.5-0.9,0.9-1.5,1.2c-0.6,0.3-1.3,0.4-2,0.4C281.6,80.2,280.9,80.1,280.3,79.9
	z"/>
<path class="st2" d="M296.2,69.1c0.2,0.2,0.3,0.4,0.3,0.7c0,0.3-0.1,0.5-0.3,0.7c-0.2,0.2-0.4,0.3-0.7,0.2H293v8.4
	c0,0.3-0.1,0.5-0.3,0.7c-0.2,0.2-0.5,0.3-0.8,0.3c-0.3,0-0.5-0.1-0.7-0.3c-0.2-0.2-0.3-0.4-0.3-0.7v-8.4h-2.5
	c-0.3,0-0.5-0.1-0.7-0.3c-0.2-0.2-0.3-0.4-0.3-0.7c0-0.2,0.1-0.5,0.3-0.7c0.2-0.2,0.4-0.3,0.7-0.3h7.1
	C295.8,68.8,296.1,68.9,296.2,69.1z"/>
<path class="st2" d="M305.2,78.5c0.2,0.2,0.3,0.4,0.3,0.6c0,0.2-0.1,0.5-0.3,0.7c-0.2,0.2-0.4,0.3-0.7,0.3h-5.4c-0.5,0-1-0.4-1-0.9
	c0,0,0,0,0,0v-9.2c0-0.5,0.4-1,0.9-1c0,0,0,0,0,0h5.4c0.3,0,0.5,0.1,0.7,0.3c0.2,0.2,0.3,0.4,0.3,0.7c0,0.2-0.1,0.5-0.3,0.6
	c-0.2,0.2-0.4,0.3-0.7,0.2h-4.3v2.7h3.6c0.3,0,0.5,0.1,0.7,0.3c0.2,0.2,0.3,0.4,0.3,0.7c0,0.2-0.1,0.5-0.3,0.6
	c-0.2,0.2-0.4,0.3-0.7,0.2h-3.6v3h4.3C304.7,78.2,305,78.3,305.2,78.5z"/>
<path class="st2" d="M317.6,69.1c0.2,0.2,0.3,0.4,0.3,0.7v9.3c0,0.5-0.4,1-0.9,1c0,0-0.1,0-0.1,0c-0.3,0-0.5-0.1-0.7-0.3
	c-0.2-0.2-0.3-0.4-0.3-0.7v-6.4l-2.6,4c-0.1,0.1-0.2,0.2-0.4,0.3c-0.1,0.1-0.3,0.1-0.4,0.1c-0.1,0-0.3,0-0.4-0.1
	c-0.1-0.1-0.3-0.2-0.4-0.3l-2.6-4.2v6.6c0,0.3-0.1,0.5-0.3,0.7c-0.2,0.2-0.4,0.3-0.7,0.3c-0.2,0-0.5-0.1-0.7-0.3
	c-0.2-0.2-0.3-0.4-0.3-0.7v-9.3c0-0.3,0.1-0.5,0.3-0.7c0.2-0.2,0.4-0.3,0.7-0.3c0.2,0,0.3,0,0.5,0.1c0.1,0.1,0.3,0.2,0.4,0.3
	l3.5,5.4l3.6-5.4c0.1-0.1,0.2-0.2,0.3-0.3c0.1-0.1,0.3-0.1,0.4-0.1C317.2,68.8,317.4,68.9,317.6,69.1z"/>
</svg>
